<svg xmlns="http://www.w3.org/2000/svg" viewBox="0 0 720 640" role="img" aria-labelledby="title desc">
  <title id="title">Parent and child scoliosis care illustration</title>
  <desc id="desc">A warm abstract illustration of a parent sitting beside a child with gentle spine care shapes.</desc>
  <defs>
    <linearGradient id="bg" x1="0" x2="1" y1="0" y2="1"><stop stop-color="#d9e5dc"/><stop offset=".52" stop-color="#ddd8ef"/><stop offset="1" stop-color="#ead0cc"/></linearGradient>
    <linearGradient id="card" x1="0" x2="1"><stop stop-color="#fffaf5"/><stop offset="1" stop-color="#ffffff"/></linearGradient>
  </defs>
  <rect width="720" height="640" rx="48" fill="url(#bg)"/>
  <circle cx="590" cy="118" r="88" fill="#fffaf5" opacity=".62"/>
  <circle cx="118" cy="510" r="106" fill="#fffaf5" opacity=".5"/>
  <rect x="90" y="96" width="540" height="420" rx="38" fill="url(#card)" opacity=".82"/>
  <path d="M351 157c-44 19-78 66-84 121-8 76 31 144 89 168" fill="none" stroke="#70483f" stroke-width="13" stroke-linecap="round" opacity=".2"/>
  <path d="M377 155c37 28 56 69 53 116-4 60-46 104-50 158" fill="none" stroke="#70483f" stroke-width="13" stroke-linecap="round" opacity=".32"/>
  <g transform="translate(116 194)">
    <circle cx="98" cy="72" r="52" fill="#8f5f55"/>
    <path d="M34 273c16-90 37-129 72-129s58 41 72 129" fill="#22313f" opacity=".88"/>
    <path d="M68 161c20 28 55 30 78 0" fill="none" stroke="#fffaf5" stroke-width="10" stroke-linecap="round"/>
  </g>
  <g transform="translate(405 246)">
    <circle cx="75" cy="49" r="40" fill="#b77b70"/>
    <path d="M18 208c9-70 29-103 60-103s49 34 58 103" fill="#5f6f75"/>
    <path d="M52 121c14 20 39 21 54 0" fill="none" stroke="#fffaf5" stroke-width="8" stroke-linecap="round"/>
  </g>
  <g fill="none" stroke="#70483f" stroke-width="7" stroke-linecap="round" opacity=".44">
    <path d="M305 223c35-24 78-25 116-2"/>
    <path d="M295 398c36 31 90 31 130 0"/>
  </g>
  <rect x="168" y="535" width="384" height="36" rx="18" fill="#ffffff" opacity=".74"/>
</svg>
